<svg width="160" height="160" viewBox="0 0 160 160" fill="none" xmlns="http://www.w3.org/2000/svg">
<path d="M79.5123 5.00497C73.9004 5.04972 68.3689 6.34366 63.3194 8.79285C58.2699 11.242 53.8293 14.785 50.3198 19.1644C46.8104 23.5439 44.3203 28.6499 43.0304 34.1118C41.7404 39.5736 41.683 45.2542 42.8623 50.741C33.3747 51.4794 24.5148 55.7698 18.0522 62.7551C11.5896 69.7404 7.99985 78.9065 8 88.4228C8 98.4467 11.982 108.06 19.07 115.148C26.1579 122.236 35.7713 126.218 45.7952 126.218C52.8957 126.218 59.8524 124.217 65.8685 120.446C71.8845 116.674 76.7165 111.285 79.8109 104.894C82.9058 111.284 87.7381 116.673 93.7541 120.444C99.7701 124.214 106.727 126.214 113.827 126.214C118.79 126.214 123.705 125.237 128.29 123.337C132.876 121.438 137.042 118.654 140.552 115.144C144.061 111.635 146.845 107.468 148.745 102.883C150.644 98.2971 151.622 93.3824 151.622 88.419C151.621 78.904 148.031 69.7393 141.57 62.7549C135.108 55.7705 126.25 51.4803 116.763 50.741C117.954 45.2043 117.885 39.4709 116.562 33.9645C115.239 28.458 112.695 23.3193 109.119 18.9281C105.543 14.5369 101.025 11.0055 95.9007 8.59495C90.7761 6.18435 85.1754 4.95996 79.5123 5.00497ZM79.6144 12.8172C84.5421 12.7873 89.4136 13.8641 93.8696 15.968C98.3257 18.072 102.253 21.1495 105.361 24.9736C108.469 28.7976 110.678 33.2706 111.827 38.0626C112.976 42.8547 113.034 47.8434 111.997 52.661C120.262 53.3034 127.98 57.04 133.609 63.1243C139.239 69.2087 142.366 77.193 142.366 85.4823C142.366 89.806 141.515 94.0875 139.861 98.0822C138.206 102.077 135.781 105.707 132.724 108.764C129.667 111.821 126.037 114.246 122.042 115.901C118.048 117.555 113.766 118.406 109.442 118.406C103.257 118.406 97.1972 116.664 91.9565 113.38C86.7158 110.095 82.5065 105.4 79.8109 99.8332C77.1153 105.4 72.906 110.095 67.6653 113.38C62.4246 116.664 56.3645 118.406 50.1795 118.406C45.8558 118.406 41.5743 117.555 37.5796 115.901C33.585 114.246 29.9553 111.821 26.898 108.764C23.8407 105.707 21.4156 102.077 19.7612 98.0822C18.1068 94.0875 17.2556 89.806 17.2561 85.4823C17.2548 77.193 20.3809 69.2082 26.0099 63.1231C31.6389 57.038 39.3564 53.3005 47.6207 52.6572C46.5917 47.872 46.6427 42.9177 47.7699 38.1547C48.8972 33.3918 51.0723 28.9401 54.137 25.1238C57.2017 21.3075 61.0788 18.2227 65.4861 16.0938C69.8934 13.9649 74.7199 12.8455 79.6144 12.8172Z" fill="#18181B"/>
<path d="M79.811 97.7318C79.811 97.7318 79.811 108.125 67.8072 128.913C43.8035 170.488 31.8035 149.7 79.811 149.7C127.818 149.7 115.815 170.488 91.811 128.913C79.811 108.125 79.811 97.7318 79.811 97.7318ZM79.811 112.646C79.811 112.646 79.811 118.33 86.3722 129.699C99.4985 152.437 106.064 141.068 79.811 141.068C53.5584 141.068 60.1197 152.437 73.2459 129.699C79.811 118.33 79.811 112.646 79.811 112.646ZM79.6636 20.2591C72.2138 20.2974 65.0802 23.2747 59.8135 28.5439C53.0255 35.3319 50.1455 45.0982 52.16 54.4865C45.44 55.0118 39.1244 57.9183 34.3584 62.6843C29.0558 67.9869 26.0737 75.1832 26.0737 82.6817C26.0734 86.3958 26.8049 90.0735 28.2264 93.5048C29.6479 96.936 31.7316 100.054 34.3584 102.679C45.4022 113.723 63.3096 113.723 74.3533 102.679C76.5881 100.444 78.4328 97.851 79.811 95.0068C81.1874 97.8511 83.0309 100.444 85.2648 102.679C90.5675 107.982 97.7637 110.964 105.262 110.964C108.976 110.964 112.654 110.233 116.085 108.811C119.517 107.39 122.634 105.306 125.26 102.679C130.562 97.3727 133.544 90.1803 133.544 82.6817C133.545 78.9677 132.813 75.29 131.392 71.8587C129.97 68.4275 127.887 65.3099 125.26 62.6843C120.494 57.9183 114.178 55.0118 107.458 54.4865C109.476 45.1019 106.596 35.3319 99.8084 28.5439C94.468 23.2034 87.2151 20.2213 79.6636 20.2591ZM79.8903 29.7042C85.8014 29.7233 91.4647 32.0808 95.6434 36.2616C101.018 41.6361 103.301 49.369 101.702 56.7996C107.023 57.2157 112.02 59.5168 115.796 63.289C119.995 67.488 122.353 73.1838 122.353 79.1214C122.353 85.059 119.995 90.7548 115.796 94.9538C111.597 99.1529 105.901 101.511 99.9634 101.511C94.0258 101.511 88.33 99.1529 84.131 94.9538C82.3621 93.1846 80.9019 91.1316 79.811 88.8801C78.7201 91.1316 77.2599 93.1846 75.491 94.9538C71.2919 99.1529 65.5962 101.511 59.6586 101.511C53.7209 101.511 48.0252 99.1529 43.8261 94.9538C39.6271 90.7548 37.2687 85.059 37.2687 79.1214C37.2687 73.1838 39.6271 67.488 43.8261 63.289C47.5997 59.514 52.5984 57.2124 57.92 56.7996C56.3212 49.369 58.6041 41.6361 63.9748 36.2616C66.0641 34.1741 68.5455 32.5201 71.2762 31.3948C74.0069 30.2694 76.9369 29.6949 79.8903 29.7042ZM79.7921 39.153C75.4229 39.1568 71.2352 40.8953 68.1474 43.9832C64.1864 47.9441 62.5083 53.6437 63.6838 59.1164C59.7644 59.4225 56.0794 61.1158 53.2976 63.8975C50.2022 66.9929 48.4636 71.1882 48.4636 75.5649C48.4636 79.9416 50.2022 84.1368 53.2976 87.2323C59.7417 93.6764 70.1883 93.6764 76.6286 87.2323C77.9328 85.9296 79.0086 84.4168 79.811 82.7573C80.6134 84.4168 81.6892 85.9296 82.9933 87.2323C89.4374 93.6764 99.884 93.6764 106.324 87.2323C109.42 84.1368 111.158 79.9416 111.158 75.5649C111.158 71.1882 109.42 66.9929 106.324 63.8975C103.543 61.1158 99.8613 59.4225 95.9382 59.1164C96.5192 56.4219 96.4151 53.6247 95.6353 50.9809C94.8555 48.337 93.4249 45.9311 91.4746 43.9832C88.3754 40.884 84.1725 39.1454 79.7921 39.153ZM79.811 137.795C68.6387 137.795 71.4318 142.633 77.0179 132.957C82.604 123.281 77.0179 123.281 82.604 132.957C88.1902 142.633 90.9832 137.795 79.811 137.795Z" fill="#18181B"/>
</svg>
