<svg width="160" height="160" viewBox="0 0 160 160" fill="none" xmlns="http://www.w3.org/2000/svg">
<g id="icon=Diamond, color=red">
<path id="Vector" d="M79.5196 4C75.2147 4 70.9174 17.0205 50.1754 42.9631C8.6082 94.9466 8.6082 64.4988 50.1754 116.479C91.7426 168.458 67.4025 168.458 108.966 116.479C150.529 64.4988 150.533 94.9429 108.966 42.9631C88.1331 17.0205 83.9265 4 79.6217 4H79.5196ZM79.5196 11.8009C83.3747 11.8009 87.2412 23.4192 105.863 46.7577C143.121 93.329 143.121 66.09 105.863 112.661C68.6043 159.233 90.4386 159.236 53.1801 112.661C15.9216 66.0862 15.9216 93.3328 53.1801 46.7577C71.8094 23.4192 75.7174 11.8009 79.5196 11.8009ZM79.5196 20.0252C76.1029 20.0252 72.69 30.3433 56.1848 50.9757C23.2312 92.2405 23.2312 68.1007 56.1848 109.267C89.1385 150.532 69.8062 150.532 102.858 109.267C135.812 68.0024 135.812 92.1385 102.858 50.9757C86.3303 30.3433 82.925 20.0252 79.5196 20.0252ZM79.5196 30.9442C82.3127 30.9442 85.1171 39.3877 98.6516 56.2859C125.694 90.0408 125.694 70.3079 98.6516 104.063C71.6091 137.818 87.4339 137.814 60.3914 104.063C33.349 70.3117 33.349 90.0408 60.3914 56.2859C73.9108 39.3612 76.719 30.9442 79.5196 30.9442ZM64.3675 97.4525C44.3285 72.3527 44.3285 87.021 64.3675 61.8494C84.4065 36.7496 72.6938 36.7496 92.7895 61.8494C112.829 86.9492 112.829 72.2809 92.7895 97.4525C72.7505 122.552 84.4632 122.552 64.3675 97.4525Z" fill="#EF4444"/>
</g>
</svg>
