<svg width="160" height="160" viewBox="0 0 160 160" fill="none" xmlns="http://www.w3.org/2000/svg">
<g id="icon=Heart, color=red">
<path id="Vector" d="M52.6187 20.0041C34.2275 19.7131 14.763 34.9861 12.4197 53.2299C10.3636 66.4884 16.0064 80.3555 26.1922 88.9501C43.355 106.117 68.4964 119.715 80.0315 140.038C91.5666 119.715 116.704 106.117 133.867 88.9501C144.053 80.3555 149.699 66.4846 147.643 53.2299C145.3 34.9861 125.836 19.7131 107.444 20.0041C97.2926 19.902 83.8753 27.4195 80.0315 35.1108C76.1878 27.4195 62.7705 19.902 52.6187 20.0041ZM57.3846 30.4431C65.7714 30.36 76.8567 36.5697 80.0315 42.9231C83.2101 36.5697 94.2917 30.36 102.678 30.4431C117.868 30.2012 133.95 42.8173 135.885 57.89C137.582 68.8431 132.922 80.2988 124.505 87.4005C110.324 101.581 89.5635 112.814 80.0315 129.603C70.4996 112.814 49.7349 101.581 35.5541 87.4005C27.1409 80.2988 22.477 68.8431 24.174 57.89C26.1091 42.8211 42.1947 30.205 57.3846 30.4431ZM60.79 37.885C47.8791 37.6809 34.2124 48.4034 32.5683 61.2122C31.1245 70.5174 35.0855 80.2572 42.2363 86.2894C54.2854 98.3385 71.9358 107.886 80.0353 122.153C88.1348 107.886 105.781 98.3423 117.831 86.2894C124.981 80.2535 128.942 70.5174 127.502 61.2122C125.858 48.4072 112.191 37.6809 99.2806 37.885C92.1525 37.8132 82.7377 43.0932 80.0353 48.4941C77.3367 43.0932 67.9144 37.8132 60.79 37.885ZM64.6375 46.3133C70.3371 46.2567 77.8734 50.4784 80.0353 54.7984C82.1934 50.4784 89.7336 46.2567 95.4331 46.3133C105.763 46.1508 116.693 54.7266 118.008 64.9728C119.161 72.4185 115.994 80.2081 110.275 85.0346C100.634 94.6761 86.5172 102.311 80.0353 113.725C73.5572 102.311 59.4407 94.6723 49.7991 85.0346C44.0769 80.2081 40.9097 72.4185 42.0624 64.9728C43.3777 54.7266 54.3119 46.1508 64.6375 46.3133ZM68.7723 55.3577C61.2171 55.2368 53.2196 61.5146 52.2558 69.0094C51.413 74.4557 53.7298 80.1552 57.9138 83.6853C64.9664 90.7379 75.2958 96.324 80.0353 104.677C84.7748 96.3278 95.1043 90.7379 102.153 83.6853C106.337 80.1552 108.658 74.4557 107.811 69.0094C106.847 61.5146 98.8498 55.2368 91.2945 55.3577C87.1219 55.3162 81.6114 58.404 80.0315 61.5637C78.4517 58.404 72.9374 55.3162 68.7685 55.3577H68.7723Z" fill="#EF4444"/>
</g>
</svg>
