<svg width="137" height="153" viewBox="0 0 137 153" fill="none" xmlns="http://www.w3.org/2000/svg">
<g id="Group 1">
<path id="Vector" d="M68.0315 0C56.4964 20.3225 31.3588 33.9212 14.1922 51.084C4.00642 59.6787 -1.6364 73.5495 0.419658 86.8081C2.76296 105.052 22.2275 120.325 40.6187 120.034C50.7705 120.136 64.1878 112.618 68.0315 104.927C71.8753 112.618 85.2926 120.136 95.4444 120.034C113.836 120.325 133.3 105.052 135.643 86.8081C137.699 73.5495 132.057 59.6824 121.871 51.084C104.708 33.9174 79.5666 20.3187 68.0315 0ZM68.0315 7.86141C78.0586 25.5231 99.9005 37.3379 114.818 52.2557C123.67 59.7278 128.576 71.7769 126.788 83.2969C124.755 99.1482 107.834 112.422 91.8539 112.169C83.0325 112.259 71.3726 105.725 68.0315 99.0424C64.6904 105.725 53.0306 112.259 44.2092 112.169C28.2294 112.422 11.3122 99.1482 9.27886 83.2969C7.49114 71.7769 12.397 59.724 21.2486 52.2557C36.1664 37.3379 58.0045 25.5231 68.0315 7.86141Z" fill="#18181B"/>
<path id="Vector_2" d="M68.0315 94.3484C68.0315 94.3484 68.0315 104.923 55.8198 126.074C31.3966 168.374 19.1849 147.224 68.0315 147.224C116.878 147.224 104.666 168.374 80.2431 126.074C68.0315 104.923 68.0315 94.3484 68.0315 94.3484ZM68.0315 107.104C68.0315 107.104 68.0315 113.65 75.5905 126.746C90.7124 152.935 98.2714 139.839 68.0315 139.839C37.7915 139.839 45.3506 152.935 60.4724 126.746C68.0315 113.65 68.0315 107.104 68.0315 107.104Z" fill="#18181B"/>
<path id="Vector_3" d="M68.0317 14.2036C59.2254 29.7148 40.0405 40.0971 26.9369 53.1969C19.1625 59.7582 14.8576 70.3446 16.4261 80.4624C18.2138 94.3862 33.0711 106.046 47.1045 105.823C54.8525 105.902 65.095 100.161 68.0317 94.2917C70.9684 100.161 81.2109 105.902 88.9589 105.823C102.996 106.046 117.853 94.3862 119.641 80.4624C121.21 70.3446 116.901 59.7582 109.126 53.1969C96.0266 40.0933 76.838 29.7148 68.0317 14.2036ZM68.0317 21.7627C75.3828 34.7151 91.4042 43.3815 102.346 54.3195C108.835 59.7998 112.434 68.6363 111.126 77.0835C109.633 88.7093 97.2285 98.4454 85.5082 98.2602C79.0376 98.3244 70.4884 93.532 68.0355 88.63C65.5863 93.532 57.0333 98.3244 50.5627 98.2602C38.8424 98.4454 26.438 88.7093 24.9451 77.0835C23.6336 68.6363 27.2317 59.796 33.7212 54.3195C44.6591 43.3815 60.6767 34.7113 68.0317 21.7627ZM82.0499 90.7087C91.4534 90.8561 101.409 83.0476 102.607 73.7197C103.657 66.9393 100.77 59.8489 95.5617 55.4533C86.7857 46.6773 73.9277 39.7229 68.0279 29.3293C62.1281 39.7229 49.2739 46.6773 40.4979 55.4533C35.2897 59.8489 32.4021 66.9393 33.4528 73.7197C34.6509 83.0476 44.6024 90.8599 54.0097 90.7087C59.1989 90.7616 66.0625 86.9178 68.0279 82.9834C69.9932 86.9178 76.8606 90.7616 82.0499 90.7087ZM68.0317 132.283C56.8329 132.283 59.6336 137.133 65.2311 127.434C70.8285 117.736 65.2311 117.736 70.8285 127.434C76.426 137.133 79.2304 132.283 68.0317 132.283Z" fill="#18181B"/>
</g>
</svg>
