<svg width="65" height="65" viewBox="0 0 65 65" fill="none" xmlns="http://www.w3.org/2000/svg">
<path d="M33.0812 59.3495C42.9458 59.3495 51.7143 52.5086 51.7143 40.6409C51.7143 29.0378 44.2308 23.7086 35.3112 23.7086C32.862 23.7086 31.0781 24.2113 28.886 25.2204L29.8951 13.9197H49.2463V5H20.7487L19.3087 30.9275L24.1464 34.0948C27.2419 32.0803 28.9842 31.2866 32.1212 31.2866C37.526 31.2866 41.1165 34.7411 41.1165 40.9244C41.1165 47.1984 37.2236 50.7133 31.6677 50.7133C26.7165 50.7133 22.937 48.2642 19.9134 45.3086L15 52.0739C18.9685 56.0424 24.5622 59.3306 32.9905 59.3306L33.0812 59.3495Z" fill="#EF4444"/>
</svg>
