<svg width="65" height="65" viewBox="0 0 65 65" fill="none" xmlns="http://www.w3.org/2000/svg">
<path d="M3.03402 54.25H30.4053V46.9215H21.8523V8.83905H15.136C12.2485 10.6835 9.10015 11.8513 4.5496 12.7131V18.2954H12.7814V47.0878H3L3.03402 54.25ZM48.222 55.2214C57.5196 55.2214 63.5857 47.1181 63.5857 31.433C63.5857 15.748 57.4856 8 48.222 8C38.9584 8 32.794 15.6838 32.794 31.433C32.794 47.1181 38.9281 55.2214 48.222 55.2214ZM48.222 48.1536C44.2837 48.1536 41.347 44.2154 41.347 31.433C41.347 18.7149 44.2988 15.0035 48.222 15.0035C52.1451 15.0035 55.0327 18.6847 55.0327 31.433C55.0327 44.2154 52.1451 48.1536 48.222 48.1536Z" fill="#EF4444"/>
</svg>
