<svg width="65" height="65" viewBox="0 0 65 65" fill="none" xmlns="http://www.w3.org/2000/svg">
<path d="M32.8015 59.3133C42.9685 59.3133 51.5102 53.644 51.5102 43.8173C51.5102 36.8251 46.8992 32.3653 40.9275 30.7023V30.3433C46.559 28.1096 49.7716 23.9181 49.7716 18.1732C49.7716 9.10235 42.7795 4 32.4992 4C26.2252 4 21.1228 6.52094 16.5118 10.5386L21.9165 17.0016C25.0838 14.0497 28.1905 12.3149 32.0079 12.3149C36.5433 12.3149 39.1511 14.7641 39.1511 18.9291C39.1511 23.6913 35.9839 27.0551 26.1874 27.0551V34.6141C37.7905 34.6141 40.8897 37.925 40.8897 43.1181C40.8897 47.9558 37.216 50.6015 31.8189 50.6015C26.9811 50.6015 23.0882 48.2242 19.9512 45.1212L15 51.811C18.7455 56.044 24.4488 59.2188 32.8393 59.2188L32.8015 59.3133Z" fill="#EF4444"/>
</svg>
