<svg width="65" height="65" viewBox="0 0 65 65" fill="none" xmlns="http://www.w3.org/2000/svg">
<path d="M32.8015 59.1999C43.611 59.1999 50.7165 53.0015 50.7165 44.9511C50.7165 37.6944 46.6724 33.348 41.7968 30.7023V30.3433C45.3231 27.8223 48.6377 23.4267 48.6377 18.1732C48.6377 9.66928 42.5905 4 33.1417 4C23.9197 4 17.0787 9.48031 17.0787 18.022C17.0787 23.6913 20.0305 27.7354 24.1464 30.6834V31.0425C19.1953 33.6352 15 38.1102 15 44.9511C15 53.3039 22.6346 59.1999 32.8015 59.1999ZM36.1842 27.7543C30.5527 25.5206 26.4708 23.0677 26.4708 18.0409C26.4708 13.8079 29.3508 11.4268 32.9338 11.4268C37.3937 11.4268 40.0015 14.5222 40.0015 18.8346C40.0015 22.0019 38.777 25.033 36.1842 27.7543ZM33.0888 51.7165C28.1376 51.7165 24.1691 48.621 24.1691 43.7795C24.1691 39.811 26.1836 36.2204 29.0825 33.9149C35.999 36.7231 40.8746 39.0173 40.8746 44.5732C40.8746 49.1842 37.6356 51.7165 33.0888 51.7165Z" fill="#EF4444"/>
</svg>
