<svg width="171" height="76" viewBox="0 0 171 76" fill="none" xmlns="http://www.w3.org/2000/svg">
<g id="Logo Light + Texte 1">
<g id="Clip path group">
<mask id="mask0_24_4401" style="mask-type:luminance" maskUnits="userSpaceOnUse" x="0" y="0" width="76" height="76">
<g id="clip0_32_748">
<path id="Vector" d="M76 0H0V76H76V0Z" fill="white"/>
</g>
</mask>
<g mask="url(#mask0_24_4401)">
<g id="Group">
<path id="Vector_2" fill-rule="evenodd" clip-rule="evenodd"
      d="M73.1585 35.2812C74.6857 36.7722 74.6857 39.2279 73.1585 40.7189L65.7889 47.9151C65.0455 48.6409 64.6318 49.6399 64.6442 50.6792L64.7667 60.9786C64.7924 63.1128 63.0558 64.8489 60.9216 64.8237L50.6222 64.7012C49.5829 64.6888 48.5839 65.1026 47.8581 65.8459L40.6619 73.2155C39.171 74.7427 36.7153 74.7427 35.2243 73.2155L28.0281 65.8459C27.302 65.1026 26.3032 64.6888 25.264 64.7012L14.9644 64.8237C12.8304 64.8489 11.0939 63.1128 11.1194 60.9786L11.2421 50.6792C11.2544 49.6399 10.8407 48.6409 10.0972 47.9151L2.72746 40.7188C1.20055 39.2279 1.20055 36.7722 2.72746 35.2812L10.0972 28.085C10.8407 27.359 11.2544 26.3601 11.2421 25.3209L11.1194 15.0213C11.0939 12.8873 12.8304 11.1509 14.9644 11.1763L25.264 11.299C26.3032 11.3114 27.302 10.8976 28.0281 10.1541L35.2243 2.78438C36.7153 1.25746 39.171 1.25746 40.6619 2.78438L47.8581 10.1541C48.5839 10.8976 49.5829 11.3114 50.6222 11.299L60.9216 11.1763C63.0558 11.1509 64.7924 12.8873 64.7667 15.0213L64.6442 25.3209C64.6318 26.3601 65.0455 27.359 65.7889 28.085L73.1585 35.2812ZM15.1431 37.24C15.1431 35.1413 16.8444 33.44 18.9431 33.44H38.7031C40.8018 33.44 42.5031 35.1413 42.5031 37.24V57C42.5031 59.0985 40.8018 60.8 38.7031 60.8H18.9431C16.8444 60.8 15.1431 59.0985 15.1431 57V37.24ZM45.5431 15.2C43.4444 15.2 41.7431 16.9013 41.7431 19V30.4C41.7431 32.4987 43.4444 34.2 45.5431 34.2H56.943C59.0415 34.2 60.743 32.4987 60.743 30.4V19C60.743 16.9013 59.0415 15.2 56.943 15.2H45.5431Z"
      fill="white"/>
</g>
</g>
</g>
<path id="Vector_3"
      d="M103.625 13.0435C103.625 13.5533 103.492 14.0078 103.226 14.4068C102.96 14.7836 102.65 15.0828 102.295 15.3045C101.719 14.9277 101.087 14.5952 100.4 14.307C99.7348 14.0188 98.9367 13.8748 98.0057 13.8748C96.2326 13.8748 94.847 14.44 93.8495 15.5705C92.852 16.6788 92.3533 18.2638 92.3533 20.3253C92.3533 22.4533 92.8743 24.0603 93.916 25.1465C94.98 26.2105 96.4321 26.7425 98.2718 26.7425C99.2251 26.7425 100.034 26.6206 100.699 26.3768C101.386 26.1108 102.018 25.8004 102.594 25.4458C102.927 25.7118 103.193 26.0553 103.392 26.4765C103.614 26.8755 103.725 27.3299 103.725 27.8398C103.725 28.2831 103.603 28.7043 103.359 29.1033C103.137 29.4801 102.738 29.8015 102.162 30.0675C101.719 30.2892 101.12 30.4887 100.367 30.666C99.6127 30.8655 98.6817 30.9653 97.5735 30.9653C96.0882 30.9653 94.7031 30.7547 93.4173 30.3335C92.1314 29.9123 91.0123 29.2695 90.059 28.405C89.1057 27.5405 88.3523 26.4433 87.798 25.1133C87.266 23.7611 87 22.1651 87 20.3253C87 18.5963 87.266 17.0668 87.798 15.7368C88.3523 14.4068 89.0948 13.2984 90.0258 12.4118C90.9568 11.5029 92.0431 10.8158 93.2843 10.3503C94.5254 9.88475 95.8554 9.652 97.2743 9.652C99.2916 9.652 100.854 9.97343 101.963 10.6163C103.071 11.2591 103.625 12.0682 103.625 13.0435ZM113.308 27.1748C113.796 27.1748 114.272 27.1304 114.738 27.0418C115.225 26.9309 115.591 26.7979 115.835 26.6428V23.5838L113.108 23.8165C112.399 23.883 111.823 24.0493 111.379 24.3153C110.959 24.5591 110.748 24.9359 110.748 25.4458C110.748 25.9778 110.947 26.3989 111.346 26.7093C111.745 27.0196 112.399 27.1748 113.308 27.1748ZM113.108 13.908C114.261 13.908 115.303 14.0299 116.234 14.2738C117.187 14.4954 117.996 14.8501 118.661 15.3378C119.326 15.8254 119.836 16.4461 120.191 17.1998C120.568 17.9534 120.756 18.8401 120.756 19.8598V27.3743C120.756 27.9506 120.601 28.4161 120.29 28.7708C120.003 29.1033 119.648 29.3914 119.226 29.6353C118.54 30.0564 117.697 30.3778 116.699 30.5995C115.702 30.8212 114.571 30.932 113.308 30.932C111.025 30.932 109.207 30.4998 107.855 29.6353C106.503 28.7486 105.827 27.4075 105.827 25.612C105.827 24.0825 106.281 22.9188 107.19 22.1208C108.099 21.3228 109.496 20.824 111.379 20.6245L115.802 20.159V19.7933C115.802 19.0839 115.514 18.563 114.937 18.2305C114.361 17.898 113.53 17.7318 112.443 17.7318C111.601 17.7318 110.77 17.8315 109.95 18.031C109.152 18.2305 108.432 18.4633 107.788 18.7293C107.522 18.5519 107.29 18.2859 107.09 17.9313C106.913 17.5544 106.824 17.1554 106.824 16.7343C106.824 15.7589 107.334 15.0607 108.354 14.6395C108.997 14.3957 109.739 14.2183 110.581 14.1075C111.446 13.9745 112.289 13.908 113.108 13.908ZM129.539 30.3668C129.318 30.4333 129.007 30.4887 128.608 30.533C128.209 30.5995 127.766 30.6328 127.278 30.6328C126.281 30.6328 125.561 30.4776 125.117 30.1673C124.674 29.8348 124.452 29.203 124.452 28.272V18.1308C124.452 17.5101 124.607 16.9781 124.917 16.5348C125.228 16.0914 125.66 15.7035 126.214 15.371C126.946 14.9277 127.822 14.5841 128.841 14.3403C129.883 14.0743 130.969 13.9413 132.099 13.9413C134.405 13.9413 135.557 14.7171 135.557 16.2688C135.557 16.6456 135.502 16.9892 135.391 17.2995C135.28 17.6098 135.158 17.8758 135.025 18.0975C134.516 17.9867 133.895 17.9313 133.163 17.9313C132.521 17.9313 131.878 18.0088 131.235 18.164C130.592 18.3192 130.027 18.5298 129.539 18.7958V30.3668ZM145.023 13.908C145.533 13.908 146.009 13.9523 146.452 14.041C146.918 14.1075 147.339 14.2073 147.716 14.3403V8.75425C147.96 8.68775 148.281 8.62125 148.68 8.55475C149.079 8.48825 149.523 8.455 150.01 8.455C151.008 8.455 151.717 8.62125 152.138 8.95375C152.582 9.28625 152.803 9.918 152.803 10.849V27.0418C152.803 27.5738 152.692 28.0282 152.471 28.405C152.249 28.7597 151.895 29.0922 151.407 29.4025C150.786 29.7793 149.988 30.1229 149.013 30.4333C148.037 30.7436 146.918 30.8988 145.654 30.8988C142.861 30.8988 140.656 30.2005 139.038 28.804C137.442 27.3853 136.644 25.2684 136.644 22.4533C136.644 20.9903 136.855 19.7268 137.275 18.6628C137.719 17.5988 138.318 16.7121 139.071 16.0028C139.825 15.2934 140.712 14.7725 141.731 14.44C142.751 14.0853 143.848 13.908 145.023 13.908ZM147.749 18.3968C147.461 18.2638 147.14 18.1529 146.785 18.0643C146.452 17.9534 146.098 17.898 145.721 17.898C144.524 17.898 143.571 18.2638 142.861 18.9953C142.152 19.7268 141.797 20.8905 141.797 22.4865C141.797 24.016 142.13 25.1354 142.795 25.8448C143.482 26.5319 144.424 26.8755 145.621 26.8755C146.087 26.8755 146.497 26.8312 146.851 26.7425C147.229 26.6317 147.528 26.5098 147.749 26.3768V18.3968ZM169.731 25.7118C169.731 27.3521 169.121 28.6378 167.902 29.5688C166.683 30.4776 164.888 30.932 162.516 30.932C161.585 30.932 160.731 30.8655 159.955 30.7325C159.202 30.5995 158.548 30.4 157.994 30.134C157.44 29.868 157.007 29.5355 156.697 29.1365C156.387 28.7375 156.231 28.272 156.231 27.74C156.231 27.2523 156.331 26.8423 156.531 26.5098C156.73 26.1551 156.985 25.8669 157.295 25.6453C157.938 26.0221 158.67 26.3546 159.49 26.6428C160.31 26.9309 161.263 27.075 162.349 27.075C163.923 27.075 164.71 26.6317 164.71 25.745C164.71 25.3682 164.566 25.08 164.278 24.8805C164.012 24.681 163.546 24.5037 162.881 24.3485L161.551 24.0493C159.734 23.6724 158.382 23.0961 157.495 22.3203C156.608 21.5223 156.165 20.4139 156.165 18.9953C156.165 17.4214 156.797 16.1801 158.06 15.2713C159.346 14.3403 161.064 13.8748 163.214 13.8748C164.012 13.8748 164.766 13.9413 165.475 14.0743C166.184 14.1851 166.794 14.3624 167.304 14.6063C167.814 14.8501 168.213 15.1604 168.501 15.5373C168.811 15.8919 168.966 16.3131 168.966 16.8008C168.966 17.2441 168.878 17.6431 168.7 17.9978C168.523 18.3303 168.29 18.6073 168.002 18.829C167.825 18.7182 167.559 18.5963 167.204 18.4633C166.871 18.3303 166.506 18.2083 166.106 18.0975C165.708 17.9867 165.287 17.898 164.843 17.8315C164.4 17.765 163.99 17.7318 163.613 17.7318C162.837 17.7318 162.228 17.8426 161.784 18.0643C161.363 18.2638 161.152 18.5741 161.152 18.9953C161.152 19.3056 161.274 19.5494 161.518 19.7268C161.762 19.9041 162.205 20.0703 162.848 20.2255L164.112 20.5248C166.129 20.9681 167.57 21.6109 168.434 22.4533C169.299 23.2956 169.731 24.3818 169.731 25.7118ZM104.124 49.9843C104.124 51.2701 103.78 52.4224 103.093 53.4423C102.428 54.4621 101.519 55.271 100.367 55.8695C101.275 57.0665 102.14 58.197 102.96 59.261C103.802 60.3027 104.423 61.1453 104.822 61.788C104.623 62.4972 104.246 63.0406 103.691 63.4173C103.16 63.7721 102.572 63.9493 101.929 63.9493C101.087 63.9493 100.444 63.7721 100.001 63.4173C99.5576 63.0406 99.1363 62.5304 98.7373 61.8877L95.5453 56.9335H93.251V63.6167C93.0073 63.6833 92.6634 63.7388 92.2203 63.783C91.7771 63.8495 91.3116 63.8828 90.8238 63.8828C89.7821 63.8828 89.0506 63.7056 88.6293 63.3507C88.2303 62.9959 88.0307 62.3533 88.0307 61.4223V45.296C88.0307 44.8527 88.1414 44.5091 88.3633 44.2653C88.6069 44.0214 88.9508 43.833 89.394 43.7C90.1032 43.434 90.9568 43.2456 91.9543 43.1348C92.9518 43.0239 93.9934 42.9685 95.0798 42.9685C98.0946 42.9685 100.356 43.6003 101.863 44.8638C103.37 46.1051 104.124 47.8121 104.124 49.9843ZM95.246 52.9103C96.31 52.9103 97.1745 52.6775 97.8395 52.212C98.5045 51.7242 98.837 50.9927 98.837 50.0175C98.837 48.1113 97.5626 47.158 95.0133 47.158C94.6584 47.158 94.3373 47.1802 94.049 47.2245C93.7607 47.2467 93.4728 47.2799 93.1845 47.3243V52.9103H95.246ZM122.865 60.325C122.865 61.3667 122.411 62.1647 121.502 62.719C120.793 63.1622 119.917 63.5061 118.875 63.7498C117.834 64.0158 116.681 64.1488 115.417 64.1488C114.22 64.1488 113.134 64.0158 112.159 63.7498C111.184 63.5061 110.341 63.1071 109.632 62.5528C108.945 61.9984 108.402 61.3002 108.003 60.458C107.626 59.6158 107.437 58.596 107.437 57.399V47.7233C107.681 47.6568 108.003 47.5903 108.402 47.5238C108.801 47.4573 109.244 47.424 109.732 47.424C110.729 47.424 111.438 47.5903 111.86 47.9228C112.303 48.2553 112.525 48.887 112.525 49.818V57.3658C112.525 58.3633 112.78 59.0838 113.289 59.527C113.799 59.9483 114.52 60.1588 115.451 60.1588C116.027 60.1588 116.504 60.1146 116.88 60.0258C117.279 59.9151 117.579 59.8039 117.778 59.6933V47.7233C118 47.6568 118.31 47.5903 118.709 47.5238C119.108 47.4573 119.551 47.424 120.039 47.424C121.037 47.424 121.757 47.5903 122.2 47.9228C122.644 48.2553 122.865 48.887 122.865 49.818V60.325ZM139.696 58.9618C139.696 60.6019 139.086 61.8878 137.867 62.8188C136.647 63.7274 134.852 64.182 132.48 64.182C131.549 64.182 130.696 64.1155 129.92 63.9825C129.166 63.8495 128.513 63.65 127.958 63.384C127.404 63.118 126.972 62.7855 126.662 62.3865C126.351 61.9875 126.196 61.522 126.196 60.99C126.196 60.5022 126.296 60.0923 126.495 59.7598C126.695 59.4049 126.95 59.1171 127.26 58.8953C127.903 59.2719 128.634 59.6044 129.455 59.8927C130.275 60.1811 131.228 60.325 132.314 60.325C133.888 60.325 134.675 59.8818 134.675 58.995C134.675 58.6183 134.531 58.33 134.243 58.1305C133.977 57.931 133.511 57.7538 132.846 57.5985L131.516 57.2993C129.698 56.9226 128.346 56.3459 127.46 55.5703C126.573 54.7723 126.13 53.6641 126.13 52.2453C126.13 50.6716 126.761 49.4299 128.025 48.5213C129.311 47.5903 131.028 47.1248 133.179 47.1248C133.977 47.1248 134.73 47.1913 135.44 47.3243C136.149 47.4351 136.759 47.6126 137.268 47.8563C137.778 48.0999 138.177 48.4106 138.465 48.7873C138.775 49.1421 138.931 49.5629 138.931 50.0508C138.931 50.4939 138.842 50.8929 138.665 51.2478C138.488 51.5803 138.255 51.8572 137.967 52.079C137.789 51.9683 137.523 51.8463 137.169 51.7133C136.836 51.5803 136.47 51.4582 136.071 51.3475C135.672 51.2368 135.251 51.148 134.808 51.0815C134.365 51.015 133.954 50.9818 133.578 50.9818C132.802 50.9818 132.192 51.0924 131.749 51.3143C131.327 51.5138 131.117 51.8239 131.117 52.2453C131.117 52.5554 131.239 52.7996 131.483 52.9768C131.726 53.1539 132.17 53.3202 132.813 53.4755L134.076 53.7748C136.094 54.2179 137.534 54.8611 138.399 55.7033C139.263 56.5454 139.696 57.6318 139.696 58.9618ZM147.822 63.6167C147.6 63.6833 147.29 63.7388 146.891 63.783C146.492 63.8495 146.049 63.8828 145.561 63.8828C144.563 63.8828 143.843 63.7274 143.4 63.4173C142.956 63.0848 142.735 62.453 142.735 61.522V42.0043C142.978 41.9378 143.3 41.8713 143.699 41.8048C144.098 41.7383 144.541 41.705 145.029 41.705C146.026 41.705 146.736 41.8713 147.157 42.2038C147.6 42.5363 147.822 43.168 147.822 44.099V47.9228C148.287 47.7009 148.808 47.5238 149.385 47.3908C149.983 47.2356 150.626 47.158 151.313 47.158C153.441 47.158 155.104 47.7009 156.301 48.7873C157.52 49.8513 158.129 51.4582 158.129 53.6085V63.6167C157.908 63.6833 157.597 63.7388 157.198 63.783C156.799 63.8495 156.356 63.8828 155.868 63.8828C154.871 63.8828 154.15 63.7274 153.707 63.4173C153.264 63.0848 153.042 62.453 153.042 61.522V53.9078C153.042 52.9103 152.787 52.2011 152.277 51.7798C151.79 51.3584 151.158 51.148 150.382 51.148C149.872 51.148 149.407 51.2254 148.986 51.3808C148.564 51.5138 148.177 51.68 147.822 51.8795V63.6167Z"
      fill="white"/>
</g>
</svg>
