<svg width="65" height="65" viewBox="0 0 65 65" fill="none" xmlns="http://www.w3.org/2000/svg">
<path d="M34.456 54.3873H33.4015C24.759 54.3873 18.0315 51.9936 13.2189 47.2062C8.4063 42.4188 6 35.7669 6 27.2504C6 18.7338 8.3937 12.0693 13.1811 7.25668C17.9937 2.41889 24.6078 0 33.0236 0C41.5401 0 48.1669 2.3937 52.9039 7.18109C57.6661 11.9685 60.0472 18.6582 60.0472 27.2504C60.0472 33.1464 58.7873 38.2362 56.2676 42.5196C53.7606 46.7779 50.1448 49.9905 45.4204 52.1574L56.0031 63.9873H43.1149L34.456 54.3873ZM33.016 9.78896C28.8837 9.78896 25.6838 11.3134 23.416 14.3622C21.1433 17.411 20.0069 21.6945 20.0069 27.2126C20.0069 32.8315 21.1206 37.1401 23.348 40.1385C25.5754 43.1118 28.8006 44.5984 33.0236 44.5984C37.1811 44.5984 40.3937 43.074 42.6614 40.0251C44.9341 36.9763 46.0705 32.6929 46.0705 27.1748C46.0705 21.6315 44.9341 17.348 42.6614 14.3244C40.3886 11.2756 37.176 9.75117 33.0236 9.75117L33.016 9.78896Z" fill="#18181B"/>
</svg>
