<svg width="65" height="65" viewBox="0 0 65 65" fill="none" xmlns="http://www.w3.org/2000/svg">
<path d="M24.7512 21.7638C24.7512 15.2252 27.9902 11.9748 31.9323 11.9748C36.4677 11.9748 40.1338 15.5729 41.0787 25.2409C38.6296 29.3606 35.2582 30.9858 32.3102 30.9858C27.6992 30.9858 24.7512 28.034 24.7512 21.7638ZM30.496 59.2944C41.0787 59.2944 50.9433 50.5637 50.9433 30.4189C50.9433 11.8992 41.8724 4 31.7811 4C22.6346 4 15 10.8409 15 21.8015C15 33.1023 21.4252 38.5826 30.2693 38.5826C33.8674 38.5826 38.3952 36.4207 41.2299 32.8378C40.7272 46.1417 35.8252 50.6771 29.8535 50.6771C26.6863 50.6771 23.4283 49.0217 21.5008 46.8598L15.8693 53.285C17.766 55.2372 20.0421 56.7807 22.5575 57.8207C25.0729 58.8606 27.7745 59.375 30.496 59.3322V59.2944Z" fill="#EF4444"/>
</svg>
