<svg width="65" height="65" viewBox="0 0 65 65" fill="none" xmlns="http://www.w3.org/2000/svg">
<path d="M33.5877 32.233C38.1987 32.233 41.2223 35.1848 41.2223 41.4551C41.2223 47.9936 37.9115 51.3196 33.9656 51.3196C29.5058 51.3196 25.9153 47.5741 24.8948 37.8645C27.3439 33.8204 30.7153 32.233 33.6255 32.233H33.5877ZM34.1622 59.2944C43.233 59.2944 50.8677 52.3779 50.8677 41.4551C50.8677 30.0787 44.5181 24.7496 35.5984 24.7496C32.1439 24.7496 27.548 26.9115 24.6378 30.4945C25.0686 17.1149 30.1181 12.5039 36.2409 12.5039C39.3363 12.5039 42.5905 14.2312 44.4425 16.3968L50.074 10.0472C46.8349 6.73637 42.137 4 35.5984 4C24.8646 4 15 12.5039 15 32.3842C15 51.1684 23.9953 59.2944 34.1622 59.2944Z" fill="#EF4444"/>
</svg>
